                <svg style="transform: rotate(0.5turn)" width="13" height="11" viewBox="0 0 13 11" fill="#cf2c47" xmlns="http://www.w3.org/2000/svg"><path d="M12.3516 6.09521L7.97656 10.4702C7.8125 10.6343 7.59375 10.7163 7.375 10.7163C7.12891 10.7163 6.91016 10.6343 6.74609 10.4702C6.39062 10.1421 6.39062 9.56787 6.74609 9.23975L9.61719 6.34131H1.25C0.757812 6.34131 0.375 5.9585 0.375 5.46631C0.375 5.00146 0.757812 4.59131 1.25 4.59131H9.61719L6.74609 1.72021C6.39062 1.39209 6.39062 0.817871 6.74609 0.489746C7.07422 0.134277 7.64844 0.134277 7.97656 0.489746L12.3516 4.86475C12.707 5.19287 12.707 5.76709 12.3516 6.09521Z" fill="#cf2c47"/></svg>
