<svg xmlns="http://www.w3.org/2000/svg" width="21.198" height="21.198" viewBox="0 0 21.198 21.198">
  <path id="Club_Records_Icon" d="M95.673-869.13l1.892-1.146,1.892,1.146a.247.247,0,0,0,.306,0,.247.247,0,0,0,.093-.293l-.506-2.158L101-873.02a.278.278,0,0,0,.093-.28.243.243,0,0,0-.226-.173l-2.185-.186-.879-2.025a.226.226,0,0,0-.24-.16.226.226,0,0,0-.24.16l-.879,2.025-2.185.186a.243.243,0,0,0-.226.173.278.278,0,0,0,.093.28l1.652,1.439-.506,2.158a.247.247,0,0,0,.093.293A.247.247,0,0,0,95.673-869.13Zm-3.97,5.115a2.053,2.053,0,0,1-1.505-.626,2.052,2.052,0,0,1-.626-1.505v-11.723a2.052,2.052,0,0,1,.626-1.505A2.053,2.053,0,0,1,91.7-880h11.723a2.053,2.053,0,0,1,1.505.626,2.052,2.052,0,0,1,.626,1.505v11.723a2.052,2.052,0,0,1-.626,1.505,2.053,2.053,0,0,1-1.505.626Zm0-2.131h11.723v-11.723H91.7ZM97.565-872.007ZM87.92-860.924Zm.266,2.1a2.117,2.117,0,0,1-1.585-.426,2,2,0,0,1-.813-1.412L84.377-872.3a2.021,2.021,0,0,1,.453-1.572,2.216,2.216,0,0,1,1.439-.826h.053a.927.927,0,0,1,.813.24,1.025,1.025,0,0,1,.36.8.97.97,0,0,1-.28.693,1.259,1.259,0,0,1-.679.373h-.027l1.439,11.669,12.628-1.545a1.059,1.059,0,0,1,.8.213,1.02,1.02,0,0,1,.4.719,1.018,1.018,0,0,1-.213.786,1.037,1.037,0,0,1-.719.386Z" transform="translate(-84.36 880)" fill="#5f6368"/>
</svg>
