<svg xmlns="http://www.w3.org/2000/svg" width="13.845" height="13.845" viewBox="0 0 13.845 13.845">
  <path id="Close_Icon" d="M223.922-734.6l-5.159,5.159a1,1,0,0,1-.737.29,1,1,0,0,1-.737-.29,1,1,0,0,1-.29-.737,1,1,0,0,1,.29-.737l5.159-5.159-5.159-5.159a1,1,0,0,1-.29-.737,1,1,0,0,1,.29-.737,1,1,0,0,1,.737-.289,1,1,0,0,1,.737.289l5.159,5.159,5.159-5.159a1,1,0,0,1,.737-.289,1,1,0,0,1,.737.289,1,1,0,0,1,.29.737,1,1,0,0,1-.29.737l-5.159,5.159,5.159,5.159a1,1,0,0,1,.29.737,1,1,0,0,1-.29.737,1,1,0,0,1-.737.29,1,1,0,0,1-.737-.29Z" transform="translate(-217 743)" fill="#889398"/>
</svg>
