<svg
  xmlns="http://www.w3.org/2000/svg"
  width="27.138"
  height="27.138"
  viewBox="0 0 27.138 27.138"
>
  <path
    id="Owner_Icon"
    d="M82.714-852.862a2.613,2.613,0,0,1-1.917-.8,2.613,2.613,0,0,1-.8-1.917V-870.5a2.613,2.613,0,0,1,.8-1.917,2.613,2.613,0,0,1,1.917-.8H89.5v-4.071a2.613,2.613,0,0,1,.8-1.917,2.613,2.613,0,0,1,1.917-.8h2.714a2.613,2.613,0,0,1,1.917.8,2.613,2.613,0,0,1,.8,1.917v4.071h6.784a2.613,2.613,0,0,1,1.917.8,2.613,2.613,0,0,1,.8,1.917v14.926a2.613,2.613,0,0,1-.8,1.917,2.613,2.613,0,0,1-1.917.8Zm0-2.714h21.71V-870.5H97.64a2.613,2.613,0,0,1-.8,1.917,2.613,2.613,0,0,1-1.917.8H92.212a2.613,2.613,0,0,1-1.917-.8,2.613,2.613,0,0,1-.8-1.917H82.714Zm2.714-2.714h8.141v-.611a1.912,1.912,0,0,0-.322-1.069,2.13,2.13,0,0,0-.9-.763,7,7,0,0,0-1.374-.458,6.867,6.867,0,0,0-1.476-.153,6.867,6.867,0,0,0-1.476.153,7,7,0,0,0-1.374.458,2.13,2.13,0,0,0-.9.763,1.912,1.912,0,0,0-.322,1.069Zm10.855-2.035h5.428v-2.035H96.283ZM89.5-862.36a1.963,1.963,0,0,0,1.442-.594,1.963,1.963,0,0,0,.594-1.442,1.963,1.963,0,0,0-.594-1.442,1.963,1.963,0,0,0-1.442-.594,1.963,1.963,0,0,0-1.442.594,1.963,1.963,0,0,0-.594,1.442,1.963,1.963,0,0,0,.594,1.442A1.963,1.963,0,0,0,89.5-862.36Zm6.784-2.035h5.428v-2.035H96.283ZM92.212-870.5h2.714v-6.784H92.212ZM93.569-863.039Z"
    transform="translate(-80 880)"
    fill="#5f6368"
  />
</svg>