<svg
  xmlns="http://www.w3.org/2000/svg"
  width="23.328"
  height="23.328"
  viewBox="0 0 23.328 23.328"
>
  <path
    id="Member_Icon"
    d="M171.664-788.336a5.616,5.616,0,0,1-4.119-1.713,5.616,5.616,0,0,1-1.713-4.119,5.616,5.616,0,0,1,1.713-4.119A5.616,5.616,0,0,1,171.664-800a5.616,5.616,0,0,1,4.119,1.713,5.616,5.616,0,0,1,1.713,4.119,5.616,5.616,0,0,1-1.713,4.119A5.616,5.616,0,0,1,171.664-788.336ZM160-776.672v-4.082a4.271,4.271,0,0,1,.638-2.278,4.252,4.252,0,0,1,1.695-1.586,21.646,21.646,0,0,1,4.593-1.7,20.06,20.06,0,0,1,4.739-.565,20.06,20.06,0,0,1,4.739.565,21.646,21.646,0,0,1,4.593,1.7,4.252,4.252,0,0,1,1.695,1.586,4.271,4.271,0,0,1,.638,2.278v4.082Zm2.916-2.916h17.5v-1.166a1.371,1.371,0,0,0-.2-.729,1.419,1.419,0,0,0-.529-.51,19,19,0,0,0-3.973-1.476,16.913,16.913,0,0,0-4.046-.492,16.913,16.913,0,0,0-4.046.492,19,19,0,0,0-3.973,1.476,1.419,1.419,0,0,0-.529.51,1.371,1.371,0,0,0-.2.729Zm8.748-11.664a2.808,2.808,0,0,0,2.059-.857,2.808,2.808,0,0,0,.857-2.059,2.808,2.808,0,0,0-.857-2.059,2.808,2.808,0,0,0-2.059-.857,2.808,2.808,0,0,0-2.059.857,2.808,2.808,0,0,0-.857,2.059,2.808,2.808,0,0,0,.857,2.059A2.808,2.808,0,0,0,171.664-791.252ZM171.664-794.168ZM171.664-779.588Z"
    transform="translate(-160 800)"
    fill="#5f6368"
  />
</svg>